<?xml version="1.0" encoding="UTF-8" standalone="no"?>
<!DOCTYPE svg PUBLIC "-//W3C//DTD SVG 1.1//EN" "http://www.w3.org/Graphics/SVG/1.1/DTD/svg11.dtd">
<svg width="100%" height="100%" viewBox="0 0 512 512" version="1.1" xmlns="http://www.w3.org/2000/svg" xmlns:xlink="http://www.w3.org/1999/xlink" xml:space="preserve" xmlns:serif="http://www.serif.com/" style="fill-rule:evenodd;clip-rule:evenodd;stroke-linejoin:round;stroke-miterlimit:2;">
    <g>
        <g>
            <path d="M249.5,77.5C250.832,87.645 251.499,98.145 251.5,109C251.246,127.503 250.913,146.003 250.5,164.5C227.847,163.615 205.18,163.282 182.5,163.5C189.201,148.435 197.701,134.435 208,121.5C220.63,105.703 234.463,91.037 249.5,77.5Z" style="fill:white;fill-opacity:0.96;"/>
            <path d="M264.5,77.5C292.828,101.495 315.162,130.162 331.5,163.5C308.843,164.5 286.176,164.833 263.5,164.5C263.284,135.49 263.617,106.49 264.5,77.5Z" style="fill:white;fill-opacity:0.96;"/>
            <path d="M224.5,79.5C226.199,79.34 227.866,79.507 229.5,80C204.41,104.028 184.076,131.528 168.5,162.5C165,162.833 161.5,163.167 158,163.5C139.839,162.826 121.672,162.326 103.5,162C132.24,117.62 172.574,90.12 224.5,79.5Z" style="fill:white;fill-opacity:0.95;"/>
            <path d="M286.5,79.5C340.456,89.957 381.789,118.457 410.5,165C388.826,165.833 367.159,165.666 345.5,164.5C338.865,149.223 330.698,134.889 321,121.5C309.723,107.255 298.223,93.254 286.5,79.5Z" style="fill:white;fill-opacity:0.95;"/>
            <path d="M-0.5,316.5L-0.5,223.5C0.495,212.012 0.828,200.345 0.5,188.5C9.173,188.334 17.84,188.5 26.5,189C27.766,189.309 28.933,189.809 30,190.5C46,219.167 62,247.833 78,276.5C78.253,247.49 78.753,218.49 79.5,189.5L104.5,189.5C104.508,232.17 104.174,274.837 103.5,317.5C94.143,317.832 84.81,317.498 75.5,316.5C59,286.833 42.5,257.167 26,227.5C25.614,257.171 25.114,286.837 24.5,316.5L-0.5,316.5Z" style="fill:white;fill-opacity:0.96;"/>
            <path d="M129.5,190.5C160.847,190.237 192.18,190.571 223.5,191.5L223.5,214.5C201.155,214.688 178.822,214.354 156.5,213.5L156.5,239.5C177.157,240.287 197.823,240.62 218.5,240.5L218.5,263.5C197.837,262.982 177.17,262.648 156.5,262.5C155.901,273.156 155.567,283.823 155.5,294.5C178.826,295.233 202.159,295.567 225.5,295.5L225.5,318.5L128.5,318.5C128.418,275.829 128.751,233.162 129.5,190.5Z" style="fill:white;fill-opacity:0.96;"/>
            <path d="M511.5,274.5L511.5,295.5C504.728,312.43 492.062,321.93 473.5,324C464.5,324.667 455.5,324.667 446.5,324C421.508,320.176 408.174,305.676 406.5,280.5L433.5,280.5C434.607,294.427 442.274,301.594 456.5,302C464.501,302.619 472.167,301.285 479.5,298C487.061,291.299 487.395,284.299 480.5,277C463.465,271.824 446.465,266.49 429.5,261C418.348,257.515 411.848,250.015 410,238.5C407.551,210.942 420.051,195.109 447.5,191C465.166,187.93 481.166,191.597 495.5,202C504.315,210.597 508.982,221.097 509.5,233.5C500.485,233.499 491.485,233.166 482.5,232.5C480.769,222.268 474.769,216.101 464.5,214C456.955,212.874 449.621,213.54 442.5,216C431.057,228.718 433.724,237.051 450.5,241C467.511,244.334 483.844,249.668 499.5,257C505.625,261.429 509.625,267.262 511.5,274.5Z" style="fill:white;fill-opacity:0.95;"/>
            <path d="M236.5,191.5L265.5,191.5C271.806,221.861 278.306,252.194 285,282.5C291.234,252.165 297.4,221.831 303.5,191.5C313.386,192.074 323.219,192.741 333,193.5C338.54,222.868 344.207,252.201 350,281.5C356.854,252.082 364.021,222.749 371.5,193.5C376,193.167 380.5,192.833 385,192.5C390.005,192.357 394.839,192.857 399.5,194C387.074,235.782 374.74,277.615 362.5,319.5C353.607,320.816 344.774,320.816 336,319.5C330.164,287.653 323.831,255.986 317,224.5C310.049,256.09 303.549,287.757 297.5,319.5L270.5,319.5C259.37,276.777 248.037,234.111 236.5,191.5Z" style="fill:white;fill-opacity:0.95;"/>
            <path d="M101.5,347.5C123.697,346.134 146.031,346.467 168.5,348.5C184.286,380.059 204.953,408.059 230.5,432.5C174.469,423.982 131.469,395.649 101.5,347.5Z" style="fill:white;fill-opacity:0.95;"/>
            <path d="M182.5,347.5C204.519,347.234 226.519,347.567 248.5,348.5C248.667,372.169 248.5,395.836 248,419.5C247.825,423.211 247.325,426.878 246.5,430.5C219.753,406.784 198.419,379.117 182.5,347.5Z" style="fill:white;fill-opacity:0.95;"/>
            <path d="M261.5,348.5L327.5,348.5C320.455,363.58 311.622,377.58 301,390.5C288.7,405.134 275.367,418.8 261,431.5C260.393,403.828 260.559,376.161 261.5,348.5Z" style="fill:white;fill-opacity:0.95;"/>
            <path d="M341.5,349.5C363.836,349.333 386.169,349.5 408.5,350C377.939,398.126 334.272,425.793 277.5,433C304.055,408.973 325.388,381.14 341.5,349.5Z" style="fill:white;fill-opacity:0.96;"/>
        </g>
    </g>
</svg>
