<?xml version="1.0" encoding="UTF-8" standalone="no"?>
<!DOCTYPE svg PUBLIC "-//W3C//DTD SVG 1.1//EN" "http://www.w3.org/Graphics/SVG/1.1/DTD/svg11.dtd">
<svg width="100%" height="100%" viewBox="0 0 2048 1480" version="1.1" xmlns="http://www.w3.org/2000/svg" xmlns:xlink="http://www.w3.org/1999/xlink" xml:space="preserve" xmlns:serif="http://www.serif.com/" style="fill-rule:evenodd;clip-rule:evenodd;stroke-linejoin:round;stroke-miterlimit:2;">
    <rect x="0" y="0" width="2048" height="1480" style="fill:rgb(62,153,0);fill-rule:nonzero;"/>
    <path d="M0,0L2048,0L2048,740L1726,740C1727.44,735.665 1728.91,731.942 1730.88,727.875C1744.32,699.006 1748.13,664.493 1738,634C1735.04,624.884 1735.04,624.884 1730,617C1730.48,610.966 1732.34,605.567 1734.31,599.875C1734.95,597.991 1735.6,596.107 1736.23,594.223C1736.54,593.319 1736.85,592.416 1737.17,591.485C1738.19,588.443 1739.14,585.384 1740.06,582.313C1741.85,576.398 1743.81,570.547 1745.78,564.691C1747.96,558.161 1750.02,551.597 1752,545L1755,545C1756.79,546.812 1758.42,548.625 1760.06,550.563C1777.68,570.367 1806.15,579.84 1831,587C1830.7,586.187 1830.39,585.373 1830.08,584.535C1827.67,577.931 1825.42,571.311 1823.44,564.563C1823.25,563.933 1823.07,563.303 1822.88,562.655C1819.39,550.61 1816.29,538.473 1813.5,526.25C1813.28,525.268 1813.28,525.268 1813.05,524.265C1810.15,511.487 1808.07,498.663 1806.37,485.668C1806.12,483.852 1805.81,482.043 1805.46,480.243C1804.86,476.045 1804.86,471.942 1804.87,467.707C1804.87,466.79 1804.86,465.872 1804.86,464.927C1804.86,461.889 1804.87,458.851 1804.88,455.813C1804.88,454.228 1804.88,454.228 1804.88,452.611C1804.97,410.309 1806.24,368.214 1809,326C1807.72,327.114 1806.43,328.229 1805.15,329.345C1804.08,330.276 1804.08,330.276 1802.99,331.226C1797.3,336.302 1792.52,342.324 1787.75,348.25C1783.65,353.323 1779.27,358.059 1774.8,362.803C1770.74,367.143 1766.96,371.647 1763.24,376.289C1760.32,379.826 1757.2,383.173 1754.07,386.531C1751.18,389.654 1748.46,392.856 1745.81,396.188C1741.18,401.951 1736.13,407.286 1731.02,412.635C1727.54,416.293 1724.11,419.987 1720.76,423.77C1715.36,429.792 1709.63,435.448 1703.88,441.125C1701.79,443.187 1699.7,445.253 1697.62,447.32C1696.25,448.67 1696.25,448.67 1694.86,450.047C1692.68,452.249 1690.64,454.541 1688.61,456.884C1685.1,460.936 1681.39,464.75 1677.6,468.535C1676.92,469.218 1676.24,469.9 1675.53,470.603C1674.1,472.033 1672.67,473.463 1671.24,474.891C1669.07,477.057 1666.9,479.228 1664.74,481.4C1663.34,482.8 1661.94,484.199 1660.54,485.598C1659.9,486.236 1659.26,486.875 1658.61,487.533C1654.83,491.286 1650.94,494.832 1646.92,498.311C1644.02,500.864 1641.29,503.567 1638.57,506.301C1638,506.863 1637.44,507.426 1636.86,508.005C1635.69,509.178 1634.51,510.352 1633.34,511.527C1631.55,513.329 1629.74,515.127 1627.94,516.924C1626.79,518.07 1625.65,519.216 1624.5,520.363C1623.97,520.9 1623.43,521.436 1622.87,521.989C1620.09,524.734 1620.09,524.734 1618,528C1644.99,531.271 1672.4,531.536 1699.03,525.586C1702,525 1702,525 1706,525L1706,529L1704,529C1703.9,529.683 1703.81,530.366 1703.71,531.07C1702.85,534.625 1701.31,537.659 1699.62,540.875C1697.22,545.512 1695.05,550.193 1693,555C1691.46,558.325 1689.89,561.631 1688.31,564.938C1687.9,565.812 1687.48,566.687 1687.05,567.588C1686.04,569.726 1685.02,571.863 1684,574C1679.85,572.692 1675.99,571.128 1672.06,569.25C1661.61,564.383 1651.45,559.839 1640,558C1637.83,557.508 1635.66,556.992 1633.5,556.465C1626.69,555.197 1619.89,554.842 1612.98,554.832C1612.15,554.829 1611.32,554.825 1610.47,554.822C1608.74,554.817 1607,554.815 1605.26,554.815C1602.64,554.813 1600.02,554.794 1597.39,554.775C1588.74,554.746 1580.44,554.853 1572,557C1570.84,557.295 1569.67,557.59 1568.47,557.895C1554.47,562.225 1542.15,568.329 1530.81,577.68C1529,579 1529,579 1527,579L1527,581C1525.91,581.96 1524.78,582.867 1523.62,583.75C1510.35,595.129 1499.62,614.671 1497.66,632.035C1496.83,649.023 1505.53,664.974 1516.56,677.368C1518.98,679.981 1521.47,682.499 1524,685C1524.6,685.602 1525.21,686.204 1525.83,686.824C1533.41,693.81 1543.5,700.031 1553,704C1553.91,704.443 1554.82,704.887 1555.76,705.344C1575.73,713.691 1600.5,709.678 1621,705C1622.09,704.754 1623.18,704.508 1624.3,704.254C1633.92,702.052 1643.53,699.793 1653,697C1645.38,713.736 1628.15,726.725 1611.32,733.105C1609.56,733.752 1607.78,734.377 1606,735C1604.66,735.476 1604.66,735.476 1603.3,735.961C1601.21,736.679 1599.12,737.362 1597,738C1595.55,738.502 1595.55,738.502 1594.08,739.015C1589,740.45 1583.9,740.362 1578.66,740.406C1577.56,740.42 1576.46,740.434 1575.33,740.448C1571.76,740.482 1568.19,740.495 1564.62,740.5C1563.41,740.504 1562.2,740.507 1560.95,740.511C1540.97,740.521 1522.39,738.892 1503,734C1501.92,733.731 1500.84,733.463 1499.73,733.186C1497.69,732.679 1495.65,732.168 1493.62,731.654C1489.4,730.601 1485.16,729.678 1480.91,728.746C1478,728 1478,728 1475.62,727C1472.16,725.68 1468.64,725.141 1465,724.563C1459.97,723.756 1455.06,722.769 1450.12,721.519C1442.87,719.846 1435.73,719.203 1428.32,718.82C1427.26,718.761 1427.26,718.761 1426.18,718.7C1404.86,717.53 1383.5,717.774 1362.16,717.863C1356.6,717.884 1351.03,717.892 1345.46,717.902C1334.64,717.923 1323.82,717.957 1313,718C1313.93,716.735 1314.87,715.471 1315.81,714.209C1316.33,713.505 1316.85,712.802 1317.39,712.077C1319.78,708.997 1322.42,706.237 1325.19,703.5C1326.04,702.659 1326.04,702.659 1326.9,701.802C1345.99,683.258 1371.12,671.952 1397,667C1397.71,666.826 1398.42,666.653 1399.15,666.474C1408.89,664.311 1418.78,664.782 1428.69,664.875C1430.56,664.885 1432.44,664.894 1434.32,664.902C1438.88,664.924 1443.44,664.959 1448,665C1447.78,664.437 1447.57,663.874 1447.35,663.294C1444.88,656.869 1442.43,650.437 1440,644C1439.74,643.314 1439.48,642.628 1439.21,641.921C1435.51,632.116 1432.53,622.165 1430,612C1429.75,611.014 1429.75,611.014 1429.49,610.008C1423.14,584.196 1425.19,556.856 1439,534C1448.77,518.981 1462.72,505.683 1477,495C1477.61,494.537 1478.23,494.075 1478.86,493.598C1504.38,474.437 1531.83,457.933 1561,445C1560.46,444.769 1559.91,444.539 1559.35,444.301C1541.29,436.563 1523,427.901 1513,410C1512.59,409.292 1512.17,408.585 1511.75,407.855C1508.19,400.991 1507.76,393.88 1509.66,386.398C1515.15,371.417 1526.66,358.261 1537.51,346.781C1540.06,344.113 1540.06,344.113 1542,341L1544,341C1544.27,340.408 1544.54,339.816 1544.81,339.206C1546.02,336.966 1547.25,335.496 1549.04,333.7C1549.65,333.08 1550.27,332.46 1550.9,331.82C1551.56,331.163 1552.23,330.505 1552.91,329.828C1553.59,329.146 1554.27,328.463 1554.97,327.76C1556.4,326.322 1557.84,324.887 1559.29,323.454C1561.5,321.251 1563.7,319.038 1565.9,316.824C1567.3,315.429 1568.7,314.034 1570.09,312.641C1570.76,311.975 1571.42,311.31 1572.1,310.624C1572.71,310.016 1573.33,309.408 1573.96,308.782C1574.5,308.244 1575.04,307.705 1575.6,307.15C1577,306 1577,306 1579,306L1579,304C1580.22,302.766 1580.22,302.766 1582.06,301.25C1586.28,297.675 1590.3,293.921 1594.31,290.125C1599.51,285.238 1604.81,280.599 1610.38,276.148C1613.22,273.816 1615.92,271.367 1618.62,268.875C1623.23,264.638 1628,260.758 1633,257C1625.56,259.879 1618.3,263.083 1611.06,266.438C1609.03,267.374 1607,268.31 1604.97,269.246C1603.98,269.703 1602.99,270.161 1601.97,270.632C1599.03,271.987 1596.08,273.329 1593.13,274.668C1589.36,276.376 1585.62,278.114 1581.88,279.875C1576.2,282.502 1570.45,284.898 1564.66,287.249C1559.31,289.433 1554.02,291.75 1548.75,294.125C1542.55,296.916 1536.31,299.474 1529.94,301.855C1527.09,302.967 1524.33,304.199 1521.56,305.5C1516.27,307.962 1510.85,309.896 1505.34,311.82C1499.73,313.802 1494.25,316.074 1488.75,318.336C1480.67,321.627 1472.51,324.618 1464.26,327.464C1459.67,329.049 1455.13,330.7 1450.62,332.5C1434.08,338.943 1416.83,343.579 1399.72,348.25C1397.4,348.888 1395.1,349.548 1392.79,350.223C1379.02,354.15 1365.13,356.237 1350.81,356.375C1349.96,356.389 1349.12,356.403 1348.24,356.417C1341.04,356.363 1334.45,355.344 1329.12,350.25C1319.18,334.135 1320.76,302.369 1324.25,284.688C1324.81,282.452 1325.39,280.222 1326,278C1326.3,276.695 1326.59,275.389 1326.88,274.082C1330.33,258.709 1336.8,244.935 1344,231C1344.33,230.34 1344.66,229.68 1345,229C1343.89,229.577 1342.77,230.155 1341.62,230.75C1338.6,232.267 1335.57,233.591 1332.41,234.801C1326.73,237.055 1321.27,239.692 1315.81,242.438C1314.78,242.956 1313.74,243.475 1312.68,244.009C1302.44,249.194 1292.48,254.819 1282.54,260.544C1279.62,262.219 1276.68,263.86 1273.73,265.496C1256.42,275.124 1239.63,285.651 1222.87,296.197C1220.17,297.891 1217.48,299.581 1214.78,301.27C1213.17,302.284 1211.55,303.298 1209.94,304.313C1209.25,304.743 1208.56,305.174 1207.85,305.617C1201.17,309.831 1194.61,314.237 1188.05,318.631C1184.61,320.927 1181.18,323.217 1177.74,325.508C1176.34,326.441 1174.94,327.375 1173.54,328.309C1165.05,333.965 1165.05,333.965 1162.94,335.37C1161.57,336.289 1160.19,337.208 1158.81,338.127C1155.76,340.162 1152.71,342.196 1149.65,344.223C1143.48,348.32 1137.37,352.487 1131.31,356.75C1130.46,357.35 1129.6,357.95 1128.72,358.568C1126.15,360.377 1123.57,362.189 1121,364C1119.52,365.038 1118.04,366.076 1116.57,367.113C1108.51,372.78 1100.5,378.509 1092.52,384.288C1088.6,387.125 1084.67,389.952 1080.73,392.754C1067.33,402.277 1054.11,412.071 1041,422C1040.23,422.58 1039.47,423.16 1038.68,423.758C1022.23,436.235 1005.96,448.897 990,462C989.127,462.712 989.127,462.712 988.237,463.438C976.27,473.217 964.438,483.233 957,497C956.407,498.079 955.814,499.158 955.203,500.27C949.46,511.203 945.107,522.509 943.439,534.818C943.151,536.906 942.836,538.989 942.493,541.068C941.148,549.45 940.717,557.665 940.726,566.138C940.727,568.394 940.713,570.649 940.697,572.904C940.651,579.305 940.626,585.706 940.619,592.107C940.614,596.053 940.59,599.998 940.554,603.944C940.544,605.431 940.542,606.919 940.547,608.407C940.577,617.02 939.992,624.223 936,632C935.566,632.966 935.131,633.931 934.684,634.926C923.672,656.017 902.218,672.625 879.583,679.762C876.834,680.562 874.078,681.321 871.313,682.063C869.841,682.46 869.841,682.46 868.34,682.866C862.499,684.417 856.716,685.735 850.727,686.578C847.727,687.042 844.827,687.734 841.875,688.438C834.925,689.958 827.938,690.853 820.875,691.688C819.791,691.819 818.706,691.95 817.589,692.086C812.196,692.694 806.808,693.147 801.383,693.332C800.42,693.367 799.457,693.401 798.465,693.437C796,693 796,693 794.269,691.206C788.699,681.525 788.679,669.834 790.504,659.012C792.296,652.919 795.743,649.504 801,646C812.305,643.471 823.54,644.036 834,649C830.33,632.17 824.689,618.801 810,609C804.301,605.364 799.319,603.924 792.697,602.842C788.68,602.012 787.127,601.159 784.543,597.922C782.541,593.696 782.407,589.673 782.5,585.063C782.485,584.303 782.469,583.543 782.453,582.76C782.5,575.896 784.993,571.211 788.563,565.5C792.868,562.85 797.106,563.334 802,564C811.613,566.333 820.234,570.393 828.969,574.93C833.093,577.07 837.283,579.05 841.5,581C842.154,581.303 842.807,581.606 843.48,581.917C844.986,582.614 846.493,583.307 848,584C846.588,559.775 846.588,559.775 833.734,539.93C830.663,537.762 827.686,536.491 824.188,535.125C813.101,530.57 803.561,523.286 798.563,512.063C798.031,510.712 797.508,509.359 797,508C796.67,507.34 796.34,506.68 796,506C795.598,500.771 796.071,497.393 799,493C803.908,488.91 807.506,488.383 813.625,488.563C814.424,488.576 815.223,488.59 816.046,488.605C822.693,488.81 828.666,489.964 835,492C836.347,492.404 837.695,492.807 839.043,493.207C845.519,495.159 851.813,497.247 858,500C857.809,485.331 856.033,474.245 845.395,463.254C839.429,457.639 833.459,453.391 826,450L826,448C825.29,447.892 824.579,447.783 823.848,447.672C817.678,446.216 811.876,442.789 807.313,438.438C805.768,435.569 805.263,434.193 806,431C810.033,426.723 814.809,425.24 820.529,424.81C823.418,424.731 826.297,424.724 829.188,424.75C830.205,424.754 831.223,424.758 832.272,424.762C839.358,424.843 846.089,425.335 853,427C849.954,413.039 843.309,402.805 832,394C830.969,393.176 829.938,392.353 828.875,391.504C824.596,388.469 819.977,387.186 815,385.688C807.368,383.204 802.278,381.087 798,374C797.327,373.24 797.327,373.24 796.641,372.465C789.283,364.004 788.129,350.534 788.617,339.742C789.38,332.287 791.422,325.248 797.211,320.172C799.178,318.884 801.041,318.117 803.25,317.313C815.215,312.953 826.019,304.829 836.375,297.563C837.082,297.067 837.789,296.571 838.518,296.061C841.97,293.596 845.11,291.134 848,288C847.131,288.012 846.262,288.023 845.367,288.035C843.639,288.049 843.639,288.049 841.875,288.063C840.738,288.074 839.601,288.086 838.43,288.098C835.187,288.005 832.181,287.614 829,287C828.511,269.103 829.857,251.751 832,234C831.247,234.557 830.494,235.114 829.719,235.688C807.461,251.679 781.299,261.288 754.344,265.519C737.363,268.244 725.249,275.048 713.406,287.703C710.779,290.126 708.005,290.128 704.617,290.133C703.716,290.135 702.814,290.137 701.885,290.139C700.892,290.135 699.898,290.13 698.875,290.125C697.817,290.121 696.758,290.117 695.668,290.113C675.05,289.975 654.559,289.28 634.008,287.646C585.542,282.033 585.542,282.033 541.793,298.512C535.873,303.785 533.871,308.384 532.859,316.285C532.694,317.543 532.529,318.802 532.358,320.098C532.24,321.056 532.122,322.013 532,323C530.719,323.07 529.438,323.14 528.117,323.212C503.477,324.574 478.971,326.121 454.517,329.519C452.061,329.855 449.602,330.172 447.141,330.474C439.775,331.389 432.688,332.535 425.563,334.625C424.233,335.011 424.233,335.011 422.877,335.405C414.378,337.992 406.731,341.674 399,346C397.922,346.578 396.845,347.155 395.734,347.75C388.48,351.768 382.267,356.595 376,362C375.279,362.575 374.559,363.15 373.816,363.742C368.175,368.339 363.848,373.829 360,380L360,382C375.193,382.711 389.509,381.509 404.43,378.866C413.65,377.25 422.666,376.412 432,376C432.908,375.949 433.816,375.899 434.751,375.847C452.58,374.928 468.574,378.206 482.406,390.063C487.444,395.029 488.685,398.598 488.793,405.609C488.797,408.235 488.797,408.235 491.063,410.563C491.702,411.037 492.341,411.511 493,412L493,414C493.929,413.919 494.859,413.838 495.816,413.754C505.8,413.244 505.8,413.244 509.418,415.523C511.091,417.272 512.54,419.074 514,421C514.66,421.33 515.32,421.66 516,422C517.485,415.565 517.485,415.565 519,409C523.866,410.946 526.867,412.921 531,416L531,403C534.836,404.534 537.494,405.847 540.813,408.125C541.603,408.664 542.393,409.203 543.207,409.758C544.095,410.373 544.095,410.373 545,411C544.835,410.196 544.67,409.391 544.5,408.563C543.908,404.341 543.915,400.253 544,396C549.728,398.044 554.086,401.462 559,405C559.33,399.72 559.66,394.44 560,389C580.283,388.189 600.703,389.409 616.625,403.57C619.034,406.075 620,407.489 620,411C612.514,413.807 604.971,415.24 597.12,416.61C594.89,417.02 592.678,417.493 590.461,417.965C583.549,419.356 576.558,420.166 569.563,421C568.834,421.087 568.106,421.174 567.355,421.264C553.256,422.939 539.177,424.191 525,425C523.541,425.091 522.082,425.182 520.623,425.273C493.08,426.972 465.546,427.189 437.96,427.188C435.245,427.188 432.53,427.189 429.815,427.19C403.532,427.195 377.273,426.732 351,426L351,424C354.803,422.218 358.607,420.44 362.414,418.666C363.704,418.063 364.993,417.46 366.283,416.856C373.771,413.348 381.268,409.947 389,407C388.163,406.963 387.327,406.925 386.465,406.887C364.867,405.667 343.917,399.257 324,391C322.503,390.403 322.503,390.403 320.977,389.793C314.813,387.297 308.878,384.51 302.984,381.43C300.677,380.324 298.457,379.398 296.063,378.523C282.599,373.588 269.999,365.837 257.409,359.017C256.811,358.694 256.213,358.37 255.596,358.038C253.949,357.148 252.303,356.256 250.657,355.364C248.003,353.917 248.003,353.917 245,353C247.127,357.57 249.259,362.137 251.396,366.702C252.119,368.248 252.841,369.795 253.561,371.342C258.4,381.741 263.509,391.929 269,402C269.98,403.833 270.959,405.666 271.938,407.5C290.561,441.415 314.834,464.484 350,481C352.966,482.465 355.92,483.951 358.875,485.438C360.247,486.124 361.62,486.81 362.992,487.496C364.481,488.241 364.481,488.241 366,489C365.37,487.922 364.739,486.845 364.09,485.734C362.292,482.661 361.037,479.595 359.855,476.246C358.47,472.61 356.762,469.123 355.086,465.613C354.024,463.058 353.501,460.711 353,458C365.268,457.659 377.157,458.612 389.343,459.966C413.45,462.611 437.527,463.892 461.75,464.813C462.58,464.844 463.409,464.876 464.264,464.908C474.508,465.296 484.754,465.66 495,466C495.161,466.65 495.322,467.299 495.487,467.969C496.233,470.96 496.991,473.949 497.75,476.938C498.003,477.959 498.255,478.981 498.516,480.033C501.047,489.939 504.988,498.33 510.264,507.023C512.213,510.323 513.779,513.138 514,517C513.369,518.68 512.7,520.347 512,522C510.829,532.146 512.62,541.996 518.125,550.688C519.791,553.068 519.791,553.068 522,554C522.247,553.216 522.495,552.433 522.75,551.625C523.702,548.866 524.709,546.184 525.801,543.48C528.046,537.896 530.246,532.294 532.438,526.688C532.829,525.686 533.221,524.684 533.625,523.652C536.442,516.444 539.239,509.229 542,502L544,502C545.297,503.497 545.297,503.497 546.75,505.578C547.276,506.327 547.802,507.076 548.344,507.848C548.89,508.64 549.437,509.433 550,510.25C550.547,511.027 551.093,511.805 551.656,512.605C554.018,515.992 556.225,519.263 558,523L560,523C560.083,521.866 560.165,520.731 560.25,519.563C560.894,514.544 562.688,510.467 565,506C565.4,505.218 565.799,504.435 566.211,503.629C575.197,487.397 590.561,475.192 608,469C611.001,468.172 613.932,467.553 617,467C619.024,470.988 621.021,474.989 623,479C623.655,480.317 623.655,480.317 624.324,481.66C624.692,482.432 625.059,483.204 625.438,484C625.766,484.681 626.095,485.361 626.434,486.063C627.148,488.507 627.044,489.677 626,492C624.215,493.238 624.215,493.238 621.938,494.313C612.564,499.215 606.727,505.456 603.119,515.437C600.667,523.628 600.905,531.022 601.557,539.479C601.849,547.019 601.849,547.019 599.324,549.937C597.281,551.449 595.202,552.734 593,554C584.531,561.713 579.06,572.601 578,584C578.027,585.837 578.027,585.837 578.055,587.711C578.063,591.691 577.967,595.134 577,599C574.469,601.5 572.011,602.868 568.852,604.484C560.053,609.161 554.495,619.964 550.816,628.863C549.836,632.631 549.707,636.199 549.75,640.063C549.742,640.757 549.735,641.451 549.727,642.166C549.742,646.29 550.457,649.228 552,653C551.878,656.042 551.08,656.919 548.926,659.113C548.063,659.839 547.201,660.565 546.313,661.313C536.48,669.942 529.205,679.439 528,693C527.868,696.897 527.858,700.788 527.875,704.688C527.878,706.285 527.878,706.285 527.881,707.914C527.92,714.988 528.137,721.972 529,729C527.948,729.371 526.896,729.742 525.813,730.125C521.092,732.126 518.3,735.4 516,740L378,740C377.67,735.05 377.34,730.1 377,725C375.447,717.457 373.397,710.879 370,704C369.665,703.269 369.33,702.538 368.984,701.785C365.965,695.396 362.273,689.482 358.478,683.533C358.059,682.875 357.639,682.217 357.207,681.539C356.642,680.66 356.642,680.66 356.066,679.764C353.313,675.207 351.942,671.383 353,666C358.029,655.043 368.552,648.405 378.24,641.944C380.175,640.65 382.092,639.334 384,638C384.845,637.421 384.845,637.421 385.706,636.831C390.086,633.564 391.625,630.184 393.313,625.188C393.563,624.514 393.814,623.84 394.072,623.146C396.85,615.365 397.167,607.466 397.387,599.277C397.412,598.373 397.438,597.469 397.464,596.537C397.516,594.637 397.565,592.737 397.613,590.837C397.687,587.942 397.778,585.048 397.869,582.154C397.918,580.3 397.965,578.445 398.012,576.59C398.055,575.304 398.055,575.304 398.1,573.991C398.24,567.249 397.537,561.407 393.313,555.875C392.855,555.254 392.397,554.632 391.926,553.992C389.23,551.203 386.199,549.193 383,547C383.047,547.905 383.047,547.905 383.095,548.829C384.109,571.265 384.109,571.265 377,581C376.459,581.788 375.917,582.575 375.359,583.387C371.837,587.971 368.622,590.038 363.016,591.43C360.712,591.97 360.712,591.97 358,594C358.217,592.935 358.433,591.87 358.656,590.773C362.515,571.231 362.515,571.231 356,553C355.446,552.13 354.891,551.26 354.32,550.363C353.142,548.528 351.958,546.696 350.77,544.867C347.117,538.949 343.998,532.68 341.5,526.188C338.227,519.233 333.042,514.099 326,511C314.3,507.053 302.229,505.167 290,508C291.031,508.413 292.063,508.825 293.125,509.25C304.403,514.167 312.416,522.662 317,534C318.212,537.636 318.261,541.024 318.313,544.813C318.342,545.512 318.371,546.211 318.4,546.932C318.463,552.108 317.291,554.837 314,559C305.976,569.8 304.427,584.036 302,597C298.976,594.008 296.012,590.994 293.188,587.813C292.583,587.138 291.978,586.464 291.355,585.77C290,584 290,584 290,582C289.443,581.753 288.886,581.505 288.313,581.25C286,580 286,580 283.75,578.125C281.005,575.832 281.005,575.832 277.375,574.375C273.642,572.599 271.085,570.311 268.125,567.438C263.322,562.904 258.257,559.38 252.625,555.938C251.852,555.46 251.078,554.983 250.282,554.492C242.275,549.709 234.538,548.725 225.438,551C224.303,551.33 223.169,551.66 222,552C222.641,552.34 223.281,552.681 223.941,553.031C231.918,557.501 238.953,563.051 241.633,572.148C243.554,580.842 243.554,580.842 243,585C241.667,587 240.333,589 239,591C237.784,596.945 240.975,602.043 244,607C244.887,607.887 245.774,608.774 246.688,609.688C250.255,613.609 249.949,619.002 250.488,624.039C251.667,633.162 253.997,642.624 261,649C266.8,653.224 272.797,656.943 279.227,660.13C280.292,660.659 280.292,660.659 281.378,661.198C281.913,661.463 282.448,661.727 283,662C283.361,676.13 282.271,689.794 280.563,703.813C280.213,706.75 279.867,709.688 279.523,712.627C279.312,714.432 279.096,716.236 278.876,718.04C278.001,725.368 277.528,732.609 277,740L0,740L0,0Z" style="fill:rgb(237,237,237);fill-rule:nonzero;"/>
    <g transform="matrix(1,0,0,1,1345,229)">
        <path d="M0,0C-1.403,3.692 -3.045,7.221 -4.766,10.771C-19.156,40.577 -24.319,71.872 -19.75,104.813C-19.641,105.634 -19.532,106.455 -19.419,107.301C-18.581,112.578 -17.155,117.609 -14,122C-11.675,123.538 -9.715,124.161 -7,125C-6.01,125.33 -5.02,125.66 -4,126C14.189,127.502 32.35,124.741 49.776,119.641C52.379,118.891 54.991,118.179 57.605,117.469C79.069,111.607 100.222,104.964 121,97C122.018,96.61 123.035,96.22 124.084,95.819C129.683,93.672 135.278,91.516 140.871,89.355C145.817,87.448 150.778,85.587 155.75,83.75C161.866,81.471 167.845,78.977 173.828,76.371C177.318,74.863 180.836,73.447 184.371,72.05C194.629,67.953 204.728,63.502 214.82,59.018C220.417,56.541 226.034,54.169 231.727,51.923C235.107,50.551 238.397,49.01 241.688,47.438C245.797,45.485 249.925,43.604 254.11,41.819C257.229,40.468 260.31,39.035 263.395,37.609C264.775,36.976 266.156,36.343 267.537,35.711C269.69,34.725 271.841,33.737 273.989,32.741C276.079,31.773 278.174,30.815 280.27,29.859C280.915,29.557 281.561,29.255 282.227,28.944C283.792,28.236 285.394,27.61 287,27C287.66,27.33 288.32,27.66 289,28C287.578,29.219 286.156,30.438 284.734,31.656C283.477,32.734 282.221,33.811 280.965,34.888C277.774,37.626 274.58,40.36 271.375,43.082C264.74,48.727 258.227,54.471 251.832,60.387C248.274,63.67 244.669,66.9 241.059,70.125C239.022,71.933 239.022,71.933 237.348,73.75C236,75 236,75 234,75L234,77C232.722,78.259 232.722,78.259 230.84,79.793C225.036,84.729 219.717,90.133 214.343,95.527C212.546,97.329 210.743,99.127 208.939,100.924C207.794,102.07 206.649,103.216 205.504,104.363C204.696,105.168 204.696,105.168 203.872,105.989C201.092,108.734 201.092,108.734 199,112L197,112C196.654,112.831 196.654,112.831 196.301,113.68C194.647,116.629 192.547,118.7 190.188,121.125C178.009,134.034 164.35,150.007 164.531,168.574C166.231,180.994 175.013,191.298 184.592,198.724C192.765,204.787 201.745,209.008 211.024,213.105C213.044,214.02 215.023,214.996 217,216C215.563,216.71 215.563,216.71 214.098,217.434C187.872,230.435 162.597,244.62 139,262C138.45,262.403 137.899,262.807 137.332,263.222C129.242,269.181 121.75,275.62 114.496,282.571C113.114,283.891 111.714,285.193 110.313,286.492C100.046,296.277 91.972,307.668 87,321C86.588,322.106 86.175,323.212 85.75,324.352C77.489,351.141 84.09,380.299 93,406C93.335,406.976 93.335,406.976 93.677,407.972C96.276,415.514 99.115,422.951 102.082,430.355C103,433 103,433 103,436C101.872,436.015 100.744,436.029 99.582,436.044C95.317,436.103 91.053,436.18 86.789,436.262C84.958,436.295 83.128,436.323 81.297,436.346C69.525,436.498 58.493,437.354 47,440C46.351,440.149 45.702,440.298 45.034,440.452C15.895,447.213 -13.015,463.673 -31,488C-29.885,487.996 -28.771,487.991 -27.622,487.987C-16.949,487.945 -6.276,487.916 4.398,487.896C9.881,487.886 15.364,487.872 20.847,487.849C62.945,487.677 62.945,487.677 83.324,488.852C84,488.888 84.677,488.925 85.374,488.963C96.445,489.591 106.913,491.493 117.594,494.404C121.203,495.298 124.854,495.904 128.521,496.51C130.853,496.971 132.963,497.61 135.188,498.438C139.996,500.152 144.93,500.989 149.94,501.877C153.869,502.58 157.706,503.395 161.563,504.438C179.339,508.946 196.663,510.654 214.982,510.521C218.525,510.5 222.066,510.522 225.609,510.547C243.412,510.569 256.995,508.184 273,500C273.811,499.599 274.622,499.198 275.457,498.785C288.15,492.183 298.839,481.655 307,470L307,469C305.196,469.563 305.196,469.563 303.355,470.137C288.755,474.562 274.033,477.461 259,480C258.032,480.181 257.063,480.362 256.065,480.549C250.824,481.321 245.569,481.225 240.279,481.24C238.269,481.25 236.26,481.281 234.25,481.313C226.614,481.343 220.12,480.814 213,478C211.171,477.288 211.171,477.288 209.305,476.563C183.668,464.883 164.75,446.783 153.969,420.484C148.901,405.938 153.17,392.383 159.563,379.063C164.627,368.953 171.665,359.653 180,352L182,352L182,350C184.07,348.32 186.131,346.773 188.313,345.25C188.951,344.801 189.59,344.352 190.248,343.89C207.183,332.156 226.17,324.862 246.855,324.832C247.679,324.829 248.502,324.825 249.351,324.822C251.085,324.817 252.818,324.815 254.552,324.815C257.163,324.813 259.774,324.794 262.385,324.775C274.363,324.735 285.448,325.513 297,329C298.528,329.285 300.058,329.56 301.59,329.828C306.962,330.888 311.828,332.657 316.875,334.75C317.738,335.101 318.602,335.453 319.491,335.814C326.163,338.565 332.638,341.586 339,345C339.25,344.17 339.5,343.34 339.758,342.484C341.163,338.543 342.953,334.959 344.875,331.25C347.543,326.018 349.979,320.813 352.063,315.316C353.48,311.813 355.211,308.482 356.949,305.129C358.108,302.903 358.108,302.903 359,300L361,300L361,296C359.974,296.219 359.974,296.219 358.927,296.443C333.231,301.89 333.231,301.89 322,302C320.985,302.014 319.97,302.027 318.924,302.042C282.691,302.461 282.691,302.461 273,299C274.309,296.112 275.704,294.046 277.946,291.811C278.54,291.214 279.135,290.616 279.748,290C280.391,289.364 281.033,288.729 281.695,288.074C282.362,287.408 283.028,286.743 283.714,286.057C285.126,284.648 286.54,283.242 287.956,281.838C290.101,279.711 292.239,277.576 294.375,275.439C295.752,274.067 297.13,272.695 298.508,271.324C299.138,270.695 299.769,270.065 300.418,269.417C303.533,266.335 306.697,263.358 310.011,260.491C313.944,257.088 317.646,253.499 321.316,249.816C321.977,249.157 322.637,248.498 323.317,247.819C324.7,246.436 326.083,245.052 327.464,243.667C329.557,241.568 331.656,239.474 333.756,237.381C335.11,236.026 336.463,234.672 337.816,233.316C338.433,232.702 339.05,232.087 339.686,231.453C343.393,227.726 346.889,223.871 350.327,219.895C352.743,217.158 355.304,214.589 357.906,212.031C358.435,211.507 358.963,210.982 359.507,210.442C361.726,208.239 363.951,206.042 366.175,203.845C371.784,198.299 377.363,192.776 382.483,186.766C385.017,183.816 387.707,181.015 390.375,178.188C395.058,173.189 399.475,168.06 403.758,162.711C406.239,159.711 408.849,156.848 411.5,154C414.952,150.291 418.265,146.515 421.438,142.563C425.283,137.781 429.373,133.304 433.565,128.83C436.622,125.548 439.517,122.199 442.313,118.688C446.321,113.703 450.585,108.995 454.938,104.313C455.601,103.592 456.265,102.872 456.948,102.13C457.885,101.132 457.885,101.132 458.84,100.113C459.401,99.513 459.961,98.913 460.539,98.294C462,97 462,97 464,97C464.263,108.219 463.834,119.306 463.063,130.5C461.583,152.536 461.312,174.604 461.043,196.682C461,199.987 460.95,203.291 460.897,206.595C460.158,238.311 460.158,238.311 464.492,269.624C465.168,272.784 465.608,275.96 466.05,279.161C467.605,290.344 470.388,301.188 473.248,312.099C474.032,315.125 474.786,318.157 475.535,321.191C476.732,325.995 478.024,330.756 479.438,335.5C479.649,336.215 479.86,336.93 480.077,337.666C481.69,343.081 483.444,348.441 485.301,353.777C486,356 486,356 486,358C457.639,352.949 427.275,338.603 409,316C407.072,318.892 406.218,321.088 405.195,324.375C404.691,325.978 404.691,325.978 404.176,327.613C403.829,328.731 403.482,329.849 403.125,331C400.871,338.225 398.527,345.378 395.902,352.477C394.604,356.108 393.539,359.788 392.5,363.5C390.831,369.354 388.977,375.05 386.699,380.703C385.652,384.144 385.43,386.762 386.953,390.07C387.595,391.087 387.595,391.087 388.25,392.125C396.991,407.194 399.352,424.278 399.375,441.438C399.377,442.598 399.378,443.758 399.38,444.953C399.214,457.863 396.48,469.641 393,482C392.776,482.874 392.551,483.748 392.32,484.648C386.881,504.861 374.482,524.245 361,540C359.929,541.265 359.929,541.265 358.836,542.555C356.613,545.095 354.326,547.553 352,550C351.475,550.558 350.949,551.116 350.408,551.691C323.793,579.785 287.853,599.703 251,611C250.307,611.214 249.615,611.428 248.901,611.648C240.64,614.185 232.382,616.497 223.93,618.324C220.964,618.967 220.964,618.967 217.984,619.953C212.251,621.623 206.274,622.234 200.375,623.063C197.966,623.406 195.557,623.751 193.148,624.098C192.088,624.247 191.028,624.397 189.935,624.551C188.095,624.832 186.26,625.152 184.437,625.525C181.907,626.018 179.435,626.286 176.867,626.5C175.409,626.624 175.409,626.624 173.922,626.75C172.916,626.833 171.911,626.915 170.875,627C168.893,627.166 166.911,627.333 164.93,627.5C163.957,627.581 162.985,627.662 161.983,627.746C157.32,628.143 152.66,628.57 148,629C148.667,629.356 149.334,629.712 150.022,630.079C164.85,638.002 179.575,646.071 194.182,654.396C198.907,657.086 203.641,659.762 208.375,662.438C209.316,662.97 210.257,663.502 211.226,664.051C217.322,667.496 223.43,670.92 229.544,674.334C240.273,680.327 250.965,686.374 261.571,692.583C264.197,694.115 266.831,695.631 269.465,697.148C286.127,706.796 301.553,717.265 316,730C316.843,730.721 317.686,731.441 318.555,732.184C326.383,738.944 333.737,746.417 338,756C338.125,759.5 338.125,759.5 337,762C331.518,765.609 324.313,764.452 318.109,763.605C304.594,760.744 292.78,753.357 282,745C273.42,738.623 264.248,733.332 255,728C255.352,728.525 255.704,729.049 256.066,729.59C261.174,737.604 264.573,746.179 268,755C268.263,755.65 268.526,756.3 268.797,756.97C281.194,788.376 274.631,824.351 269.799,856.616C269.062,861.544 268.373,866.477 267.699,871.414C265.812,885.105 263.624,898.704 260.875,912.25C260.633,913.453 260.392,914.655 260.143,915.895C258.725,922.6 257.352,928.244 252.813,933.563C249.531,939.785 250.202,947.43 251.813,954.188C252.204,955.446 252.596,956.704 253,958C253.195,958.801 253.389,959.601 253.59,960.426C255.145,966.49 257.259,971.733 262,976C265.374,977.257 265.374,977.257 267.734,977.582C270.443,978.082 272.86,978.969 275.438,979.938C278.815,981.2 282.19,982.403 285.625,983.5C299.414,988.088 313.285,995.109 324,1005C324.621,1005.57 325.243,1006.13 325.883,1006.72C330.028,1010.96 332.699,1015.83 335.375,1021.06C335.721,1021.74 336.068,1022.41 336.424,1023.1C338.543,1027.44 339.562,1031.19 340,1036C339.031,1035.13 338.061,1034.27 337.063,1033.38C326.3,1024.23 316.491,1019.5 302.164,1019.66C299.065,1019.84 299.065,1019.84 296.637,1020.98C289.073,1023.9 278.267,1023.61 270.828,1020.49C267.488,1018.87 264.286,1017.02 261.077,1015.15C257.351,1013.09 253.459,1011.4 249.563,1009.69C248.841,1009.36 248.12,1009.04 247.377,1008.7C239.014,1004.99 231.608,1002.43 222.375,1002.5C221.074,1002.5 221.074,1002.5 219.747,1002.51C211.423,1002.72 204.655,1004.79 197,1008C196.16,1008.33 195.319,1008.67 194.453,1009.01C192.893,1009.63 191.334,1010.26 189.777,1010.89C188.861,1011.25 187.944,1011.62 187,1012C186.384,1012.25 185.768,1012.5 185.133,1012.76C171.171,1018.33 160.727,1020.09 146.234,1014.44C142.633,1012.84 139.267,1010.99 135.867,1009C127.353,1004.43 113.945,1006.76 105,1009C102.898,1009.84 100.972,1010.77 99.012,1011.9C97,1013 97,1013 93.676,1014.36C86.158,1017.54 78.787,1022.82 73.25,1028.81C67.844,1034.51 61.88,1036.2 54.129,1036.47C50.335,1036.51 46.543,1036.5 42.748,1036.49C34.924,1036.58 29.01,1037.5 22,1041C20.517,1041.65 20.517,1041.65 19.004,1042.31C17.795,1042.87 17.795,1042.87 16.563,1043.44C15.656,1043.85 14.75,1044.27 13.816,1044.69C11.863,1045.6 9.913,1046.51 7.965,1047.43C6.986,1047.89 6.008,1048.34 5,1048.81C4.113,1049.23 3.226,1049.65 2.313,1050.08C0,1051 0,1051 -3,1051C-2.232,1039.1 1.919,1029.26 10.984,1021.25C12.94,1019.73 14.929,1018.35 17,1017C18.093,1016.28 19.186,1015.56 20.313,1014.81C24.87,1012.28 29.963,1011.2 35,1010C35.041,1009.15 35.083,1008.31 35.125,1007.44C36.476,1002.13 39.347,998.756 43.906,995.738C49.562,992.9 55.318,992.318 61.539,991.563C66.313,990.787 70.765,989.362 75,987C75.33,986.34 75.66,985.68 76,985C74.861,984.693 74.861,984.693 73.699,984.379C72.208,983.975 72.208,983.975 70.688,983.563C69.701,983.296 68.715,983.029 67.699,982.754C65.785,982.219 63.886,981.629 62,981C49.447,979.941 37.108,979.569 25.517,984.846C18.509,987.935 11.534,988.078 4,987C0.89,985.65 -1.821,984.113 -4.688,982.313C-10.598,979.971 -17.092,980.098 -23.125,982.125C-30.707,985.458 -36.495,990.042 -41.688,996.461C-42.121,996.969 -42.554,997.477 -43,998L-44,998C-44.698,987.807 -43.012,980.291 -36.438,972.313C-27.538,962.95 -15.858,956.816 -3,956C-2.773,955.113 -2.546,954.226 -2.313,953.313C-0.809,949.518 0.915,947.633 4,945C7.605,943.798 10.973,943.77 14.73,943.684C15.481,943.663 16.231,943.642 17.004,943.621C19.399,943.555 21.793,943.496 24.188,943.438C25.812,943.394 27.436,943.351 29.061,943.307C33.04,943.2 37.02,943.098 41,943C34.573,939.08 28.853,936.947 21.512,935.529C18.454,934.869 16.355,934.33 14.035,932.176C12.838,929.66 12.69,928.02 12.813,925.25C12.84,924.451 12.867,923.652 12.895,922.828C12.929,922.225 12.964,921.622 13,921C3.661,915.668 -6.652,917.496 -16.672,920.148C-19.151,920.87 -19.151,920.87 -21,923C-23.625,923.625 -23.625,923.625 -26,924C-24.448,914.055 -17.453,906.339 -10,900C-1.816,894.544 8.266,893.782 17.828,895.512C18.545,895.673 19.262,895.834 20,896C20.289,895.216 20.578,894.433 20.875,893.625C22,891 22,891 24,889C29.847,888.025 33.377,889.822 38.273,892.98C43.564,896.899 48.252,901.456 53,906C70.247,922.424 70.247,922.424 90.867,934.023C93.749,935.343 96.479,936.898 99.25,938.438C111.684,945.205 124.984,949.711 139.125,945.813C153.548,940.884 172.436,928.593 180,915C180.145,912.163 179.371,910.672 178.02,908.223C174.297,901.006 173.996,894.01 175,886C177.426,878.904 185.591,874.205 192,871C191.969,869.798 191.969,869.798 191.937,868.573C191.853,864.903 191.801,861.233 191.75,857.563C191.716,856.302 191.683,855.042 191.648,853.744C191.579,847.05 191.803,841.795 195.036,835.847C196.523,832.997 197.272,830.935 196.363,827.809C196.017,827.026 195.67,826.244 195.313,825.438C194.754,824.115 194.754,824.115 194.184,822.766C193.793,821.853 193.402,820.94 193,820C187.825,807.461 183.803,790.463 188,777C187.441,776.756 186.881,776.513 186.305,776.262C177.453,771.416 168.923,762.675 166,753C165.033,753.016 165.033,753.016 164.047,753.032C161.073,753.074 158.099,753.099 155.125,753.125C154.112,753.142 153.099,753.159 152.055,753.176C135.864,753.28 135.864,753.28 129.938,748.563C128,746 128,746 127,743C126.192,743.277 125.384,743.554 124.551,743.84C123.482,744.202 122.414,744.564 121.313,744.938C119.729,745.477 119.729,745.477 118.113,746.027C111.34,748.144 104.926,748.251 97.875,748.313C96.797,748.342 95.72,748.371 94.609,748.4C83.342,748.489 74.492,745.449 66,738C65.34,737.34 64.68,736.68 64,736C57.577,736.316 51.536,737.726 45.309,739.281C38.352,740.793 31.592,741.182 24.5,741.188C23.697,741.2 22.894,741.212 22.066,741.225C10.909,741.252 -0.261,738.045 -8.625,730.465C-10,729 -10,729 -12,726C-13.953,725.466 -13.953,725.466 -16.227,725.41C-17.515,725.321 -17.515,725.321 -18.829,725.23C-19.752,725.175 -20.674,725.119 -21.625,725.063C-40.273,723.569 -59.2,719.379 -72.406,705.113C-74,703 -74,703 -75.313,699.563C-76.739,696.781 -76.739,696.781 -79.449,696.332C-81.543,696.018 -83.641,695.733 -85.742,695.473C-95.423,694.068 -105.551,689.541 -111.781,681.781C-112.183,681.193 -112.586,680.606 -113,680C-116.524,681.175 -117.15,682.193 -119.313,685.125C-119.934,685.942 -120.555,686.76 -121.195,687.602C-122.256,689.011 -123.314,690.422 -124.367,691.836C-128.249,696.729 -133.011,700.136 -138.031,703.809C-148.241,711.345 -157.134,720.19 -159.637,733.137C-161.43,747.273 -160.092,758.939 -152.02,770.945C-144.285,780.384 -134.422,783.891 -122.921,786.542C-112.671,788.931 -103.391,793.675 -93.961,798.233C-86.609,801.76 -80.636,803.222 -72.5,803.375C-58.937,803.877 -48.061,806.73 -37,815C-36.27,815.535 -35.541,816.07 -34.789,816.621C-25.717,823.869 -20.878,834.289 -17,845C-16.629,846.011 -16.629,846.011 -16.25,847.043C-14.269,853.494 -14.831,860.328 -15,867C-20.325,866.449 -25.07,865.531 -30.188,863.875C-30.857,863.659 -31.526,863.443 -32.216,863.221C-33.682,862.745 -35.148,862.266 -36.612,861.784C-39.178,860.941 -41.749,860.115 -44.32,859.289C-53.454,856.329 -62.41,853.338 -71,849C-72.354,848.333 -72.354,848.333 -73.734,847.652C-76.163,846.448 -78.583,845.228 -81,844C-82.333,843.332 -83.666,842.665 -85,842C-85.496,843.027 -85.993,844.055 -86.504,845.113C-95.012,862.549 -105.563,877.96 -119,892C-119.619,892.651 -120.238,893.303 -120.875,893.974C-130.605,904.153 -140.582,913.362 -152.024,921.58C-153.913,922.937 -155.782,924.316 -157.648,925.703C-165.162,931.239 -172.955,936.148 -181.019,940.839C-183.077,942.045 -185.121,943.272 -187.164,944.504C-196.562,950.148 -206.109,955.275 -216,960C-216.637,960.305 -217.274,960.611 -217.93,960.925C-222.266,962.997 -226.626,965.01 -231,967C-232.14,967.526 -233.279,968.052 -234.453,968.594C-255.473,978 -255.473,978 -264,978C-261.389,981.379 -258.064,982.33 -254,983C-248.653,983.348 -243.565,982.959 -238.262,982.238C-229.867,981.354 -222.051,980.803 -215,986C-212.125,988.625 -212.125,988.625 -210,991C-207.714,993.286 -206.918,993.372 -203.816,993.859C-202.976,994.002 -202.136,994.145 -201.27,994.292C-200.377,994.443 -199.483,994.594 -198.563,994.75C-186.325,997.033 -177.484,1000.69 -170,1011C-168.252,1014.28 -166.914,1017.64 -165.625,1021.12C-165.283,1021.99 -164.942,1022.86 -164.59,1023.75C-162.896,1028.15 -161.541,1032.29 -161,1037C-161.45,1036.65 -161.9,1036.3 -162.363,1035.93C-178.485,1023.41 -178.485,1023.41 -197.922,1019.4C-203.454,1020.48 -207.559,1023.68 -212,1027C-217.211,1029.61 -226.071,1028.68 -231.652,1027.39C-234.195,1026.4 -236.572,1025.24 -239,1024C-240.75,1023.18 -240.75,1023.18 -242.535,1022.34C-250.006,1018.79 -257.104,1014.81 -264.125,1010.44C-279.839,999.841 -279.839,999.841 -298,998C-303.768,999.381 -309.377,1001.13 -315,1003C-317.101,1003.12 -319.207,1003.18 -321.313,1003.19C-322.422,1003.2 -323.532,1003.22 -324.676,1003.23C-328.347,1003.14 -331.886,1002.58 -335.512,1002.01C-343.188,1000.87 -350.75,1000.64 -358.5,1000.69C-359.196,1000.69 -359.891,1000.69 -360.608,1000.7C-385.254,1000.83 -412.52,1003.95 -434,1017C-434.884,1017.53 -435.769,1018.06 -436.68,1018.6C-438.376,1019.62 -440.07,1020.65 -441.762,1021.68C-447.546,1025.1 -452.225,1026.78 -459,1026C-461.188,1024.12 -461.188,1024.12 -463,1022C-468.362,1019.1 -473.64,1019.44 -479.375,1021.06C-486.199,1023.53 -491.434,1028.31 -496.438,1033.44C-497.283,1034.28 -498.129,1035.13 -499,1036L-501,1036C-504.889,1028.82 -507.74,1022.25 -506,1014C-501.923,1005.3 -493.51,1001.37 -485,998C-491.21,992.506 -497.555,988.366 -504.996,984.791C-507.676,983.462 -509.687,982.445 -511.43,979.969C-512.21,977.275 -512.127,974.786 -512,972C-519.388,970.522 -526.451,969.722 -533,974C-535.641,976.236 -538.171,978.547 -540.668,980.941C-542.743,982.773 -544.473,983.925 -547,985C-546.754,974.499 -543.098,966.493 -535.949,958.816C-532.592,955.688 -528.994,953.245 -525,951C-524.398,950.658 -523.796,950.317 -523.176,949.965C-516.718,946.953 -506.622,946.569 -499.855,948.664C-497.046,949.173 -495.51,947.99 -493.063,946.625C-487.066,943.307 -480.857,941.826 -474,943C-470.382,944.419 -466.996,946.033 -463.527,947.785C-462.859,948.111 -462.192,948.436 -461.503,948.772C-459.535,949.738 -457.584,950.741 -455.641,951.758C-444.801,957.176 -434.996,958.18 -423,958.438C-421.242,958.499 -419.484,958.563 -417.727,958.631C-413.485,958.787 -409.244,958.905 -405,959C-416.53,941.29 -427.13,933.874 -447.609,929.471C-450.854,928.832 -454.095,928.371 -457.375,927.938C-463.461,927.096 -466.842,925.158 -471.188,920.813C-472.842,918.246 -473.578,916.379 -474.438,913.5C-475.955,908.544 -478.359,905.534 -482.902,902.895C-488.261,900.61 -493.775,901.675 -499.063,903.688C-503.102,905.446 -506.767,907.571 -510.406,910.047C-512,911 -512,911 -514,911C-512.878,901.731 -509.499,895.103 -502.75,888.625C-494.502,882.17 -484.044,882.049 -474,883C-469.217,883.951 -464.607,885.41 -460,887C-459.803,886.064 -459.803,886.064 -459.602,885.109C-459,883 -459,883 -457.375,881.25C-453.574,879.249 -450.229,879.495 -446.086,880.434C-433.703,884.405 -422.935,896.362 -414.734,905.988C-412.747,908.294 -410.717,910.539 -408.625,912.75C-407.957,913.467 -407.29,914.183 -406.602,914.922C-399.755,920.391 -391.256,922.189 -382.875,924.125C-381.769,924.384 -380.663,924.642 -379.524,924.909C-363.418,928.593 -347.628,931.028 -331.375,927C-318.499,923.822 -305.162,924.646 -292,925C-291.86,924.059 -291.719,923.118 -291.575,922.149C-289.996,913.5 -283.245,908.003 -276.438,903.188C-271.047,901.325 -265.648,901.774 -260,902C-260.058,901.25 -260.116,900.5 -260.176,899.727C-260.518,891.97 -259.549,886.392 -255,880C-251.729,876.481 -248.336,874.049 -244,872C-244.592,871.697 -245.183,871.394 -245.793,871.082C-250.577,868.546 -254.397,866.133 -258,862C-258.598,861.361 -259.196,860.721 -259.813,860.063C-261.405,857.296 -261.214,855.134 -261,852C-261.709,852.16 -262.418,852.32 -263.149,852.485C-277.805,855.132 -293.971,853.805 -308,849C-308.936,848.723 -309.872,848.446 -310.836,848.16C-320.875,844.809 -327.757,837.348 -332.941,828.359C-334.043,825.905 -334.582,823.651 -335,821C-336.217,820.67 -337.434,820.34 -338.688,820C-354.824,814.63 -372.585,800.793 -381,786C-381.389,785.331 -381.779,784.662 -382.18,783.973C-387.295,774.545 -388.966,762.784 -386.324,752.324C-385.5,750.125 -385.5,750.125 -384,747C-384.797,747.277 -385.593,747.554 -386.414,747.84C-387.474,748.202 -388.533,748.564 -389.625,748.938C-390.669,749.297 -391.713,749.657 -392.789,750.027C-398.912,751.882 -404.658,752.156 -411,752.125C-411.781,752.129 -412.562,752.133 -413.367,752.137C-416.866,752.131 -419.741,752.071 -423.141,751.137C-426.276,750.69 -426.276,750.69 -429.234,753.324C-430.419,754.432 -431.59,755.554 -432.75,756.688C-450.851,773.338 -471.909,786.243 -497.063,786.125C-497.896,786.13 -498.729,786.136 -499.588,786.141C-504.663,786.14 -509.414,785.658 -514.438,784.875C-518.644,784.519 -520.437,784.655 -524.07,786.879C-526.112,788.625 -528.056,790.367 -529.988,792.223C-537.261,799.197 -547.473,804.824 -557,808C-558.002,809.836 -558.002,809.836 -558.684,812.121C-558.969,812.969 -559.255,813.818 -559.549,814.691C-559.842,815.598 -560.136,816.504 -560.438,817.438C-561.057,819.28 -561.678,821.123 -562.301,822.965C-562.595,823.845 -562.89,824.725 -563.194,825.632C-564.623,829.829 -566.279,833.917 -568,838C-568.792,839.896 -569.584,841.792 -570.375,843.688C-570.794,844.69 -571.213,845.693 -571.645,846.727C-573.137,850.331 -574.608,853.943 -576.063,857.563C-576.316,858.193 -576.569,858.823 -576.831,859.472C-578.747,864.275 -580.493,869.123 -582.141,874.023C-583,876 -583,876 -585,877C-594.87,861.294 -604.341,845.369 -611,828C-611.327,827.269 -611.655,826.537 -611.992,825.783C-613.174,822.52 -613.626,819.462 -614.07,816.02C-614.156,815.365 -614.242,814.711 -614.331,814.038C-614.602,811.963 -614.863,809.888 -615.125,807.813C-615.308,806.407 -615.492,805.001 -615.676,803.596C-617,793.395 -617,793.395 -617,791C-622.239,794.593 -625.505,799.43 -629.188,804.5C-634.2,811.295 -639.281,817.931 -644.758,824.359C-646.975,826.971 -649.113,829.635 -651.25,832.313C-656.658,838.938 -662.507,845.141 -668.406,851.327C-669.747,852.734 -671.078,854.151 -672.406,855.57C-677.169,860.528 -682.343,864.719 -687.766,868.915C-697.031,876.092 -704.871,883.669 -712,893C-712.66,893.863 -712.66,893.863 -713.333,894.744C-729.583,916.13 -745.29,941.717 -748,969C-745.774,970.153 -743.545,971.298 -741.313,972.438C-740.687,972.763 -740.061,973.088 -739.416,973.424C-733.289,976.536 -728.44,977.117 -721.609,977.176C-720.163,977.199 -718.716,977.223 -717.27,977.248C-715.014,977.283 -712.759,977.312 -710.503,977.326C-694.407,977.441 -694.407,977.441 -687,982C-686.154,982.516 -685.309,983.031 -684.438,983.563C-683.963,984.037 -683.489,984.511 -683,985L-683,988C-682.126,988.039 -682.126,988.039 -681.234,988.078C-668.243,988.977 -657.979,993.296 -649.125,1002.94C-643.64,1010.84 -643.614,1017.61 -644,1027C-646.855,1025.67 -649.178,1024.16 -651.625,1022.19C-657.898,1017.45 -664.63,1012.95 -672.781,1013.45C-677.179,1014.54 -680.485,1017.25 -684,1020C-685.436,1021.09 -686.874,1022.17 -688.313,1023.25C-688.927,1023.73 -689.542,1024.21 -690.176,1024.7C-694.676,1027.9 -698.395,1028.39 -703.875,1028.38C-704.627,1028.37 -705.378,1028.37 -706.153,1028.37C-713.522,1028.21 -720.073,1026.49 -727,1024C-727.892,1023.7 -728.784,1023.4 -729.703,1023.09C-739.881,1019.39 -748.069,1013.04 -756.289,1006.15C-764.894,999.32 -771.994,996.077 -783,997C-788.126,998.619 -792.211,1001.38 -796.613,1004.38C-808.324,1012.33 -817.633,1015.36 -832,1014C-835.039,1013.1 -835.039,1013.1 -837.938,1012C-846.718,1008.74 -856.029,1008.51 -864.875,1011.75C-870.942,1014.61 -876.236,1018.55 -881.645,1022.48C-898.518,1034.68 -917.043,1040.86 -938,1039C-942.396,1038.03 -946.229,1036.73 -949.5,1033.54C-953.524,1029.62 -956.223,1028.28 -961.863,1028.27C-962.671,1028.3 -963.48,1028.34 -964.313,1028.38C-965.156,1028.4 -966,1028.42 -966.869,1028.45C-979.867,1029.05 -987.252,1034.84 -996,1044C-997.837,1046.28 -999.415,1048.54 -1001,1051L-1002,1051C-1001.52,1037.67 -998.768,1025.15 -989.34,1015.26C-983.972,1010.34 -978.424,1006.77 -971,1006.75C-969.666,1006.81 -968.331,1006.89 -967,1007C-966.856,1005.78 -966.711,1004.57 -966.563,1003.31C-966.172,1000.17 -965.676,997.092 -965,994C-965.731,993.732 -966.462,993.464 -967.215,993.188C-969.936,992.027 -972.119,990.654 -974.563,989C-985.696,982.317 -1003.4,981.778 -1015.97,984.828C-1019.04,985.772 -1022.01,986.825 -1025,988C-1027,988.675 -1029,989.344 -1031,990C-1030.73,981.527 -1028.13,976.337 -1022.29,970.207C-1011.32,960.176 -996.117,960.51 -982.044,960.885C-978.668,961.075 -975.348,961.531 -972,962C-970.794,960.452 -969.611,958.886 -968.438,957.313C-967.446,956.007 -967.446,956.007 -966.434,954.676C-964.745,952.105 -964.745,952.105 -965.223,949.293C-965.939,947.008 -965.939,947.008 -967,945C-967.232,937.696 -967.232,937.696 -966,934C-969.82,929.961 -973.147,926.521 -978.762,925.496C-987.429,925.323 -993.476,927.675 -999.777,933.699C-1000.18,934.128 -1000.58,934.558 -1001,935C-1001.66,934.67 -1002.32,934.34 -1003,934C-1001.64,923.343 -998.603,914.988 -990.844,907.375C-984.865,902.916 -978.124,903.475 -971,904C-963.707,905.221 -959.15,908.883 -954,914C-953.469,914.517 -952.938,915.034 -952.391,915.566C-951.245,916.696 -950.12,917.845 -949,919C-948.113,918.67 -947.226,918.34 -946.313,918C-938.227,915.711 -929.374,915.887 -922,920C-921.388,920.329 -920.775,920.657 -920.145,920.996C-917.119,922.637 -914.136,924.351 -911.147,926.059C-909.766,926.846 -908.384,927.633 -907.002,928.417C-905.615,929.205 -904.23,929.995 -902.848,930.79C-896.803,934.222 -890.787,936.982 -884,938.625C-882.546,938.985 -882.546,938.985 -881.063,939.352C-859.076,944.007 -837.051,939.884 -817.996,928.094C-807.754,920.937 -798.804,912.541 -791.233,902.597C-790.048,901.062 -788.796,899.578 -787.543,898.098C-781.368,889.868 -781.654,883.5 -782.061,873.533C-782.353,863.096 -779.657,856.223 -772.59,848.297C-767.017,842.957 -760.988,838 -753,838C-753.598,836.907 -754.196,835.814 -754.813,834.688C-759.087,826.078 -762.07,816.211 -758.938,806.813C-752.767,797.855 -743.916,795.357 -734,792C-735.237,790.546 -735.237,790.546 -736.5,789.063C-739.581,784.713 -739.804,781.185 -739,776C-737.829,771.032 -736.656,767.588 -733,764C-732.67,763.01 -732.34,762.02 -732,761C-739.091,761.042 -746.181,761.116 -753.271,761.208C-755.67,761.235 -758.07,761.257 -760.47,761.271C-776.434,761.371 -791.656,762.639 -807.359,765.536C-811.307,766.23 -815.273,766.755 -819.25,767.25C-821.052,767.474 -821.052,767.474 -822.891,767.703C-825.621,767.964 -828.26,768.062 -831,768C-830.965,769.088 -830.93,770.176 -830.895,771.297C-830.692,780.383 -831.276,788.253 -834,797C-834.182,797.779 -834.364,798.557 -834.551,799.359C-838.791,816.551 -850.639,832.752 -864,844C-866.144,844.621 -866.144,844.621 -868,845C-868.172,843.932 -868.172,843.932 -868.348,842.842C-875.121,801.465 -886.005,761.234 -911,727C-912.163,725.346 -913.325,723.692 -914.487,722.038C-928.055,702.825 -942.983,684.581 -962,670.5C-990.13,649.663 -1009.61,617.483 -1025.89,587.036C-1026.66,585.629 -1027.45,584.234 -1028.26,582.851C-1031.46,577.336 -1033.69,571.797 -1035.69,565.75C-1036.27,564.015 -1036.86,562.281 -1037.45,560.547C-1037.72,559.749 -1037.99,558.95 -1038.26,558.128C-1038.85,556.442 -1039.5,554.778 -1040.17,553.125C-1041.33,550.158 -1041.58,547.144 -1042,544C-1042.33,543.67 -1042.66,543.34 -1043,543C-1043.31,543.874 -1043.31,543.874 -1043.63,544.766C-1047.2,554.277 -1052.19,562.677 -1058.25,570.813C-1063.02,577.299 -1064.98,582.29 -1065.88,590.313C-1067.1,600.314 -1070.04,607.237 -1077.97,613.625C-1080,615 -1080,615 -1083.38,616.438C-1086.87,617.942 -1088.88,619.446 -1091.75,621.875C-1103.51,631.627 -1115.82,632.895 -1130.55,632.253C-1135.84,631.707 -1140.39,629.621 -1145,627L-1145,625C-1143.76,624.709 -1142.51,624.417 -1141.23,624.117C-1125.65,620.414 -1125.65,620.414 -1112.5,611.625C-1109.27,605.964 -1107.67,600.461 -1107,594C-1107.99,593.67 -1108.98,593.34 -1110,593C-1111.98,590.44 -1112.92,588.327 -1113.69,585.188C-1112.75,580.832 -1110.41,579.216 -1107.21,576.238C-1102.38,571.348 -1099.11,565.222 -1096.02,559.125C-1090.82,549.016 -1085.02,542.834 -1076,536C-1071.8,532.31 -1070.77,528.698 -1070.32,523.191C-1070.17,521.392 -1070.17,521.392 -1070.01,519.555C-1069.96,518.908 -1069.91,518.261 -1069.85,517.594C-1069.56,514.027 -1069.25,510.463 -1068.93,506.898C-1068.86,506.124 -1068.79,505.35 -1068.72,504.552C-1068.14,498.205 -1067.45,491.872 -1066.73,485.539C-1066.62,484.559 -1066.51,483.579 -1066.39,482.569C-1065.95,478.659 -1065.5,474.75 -1065.04,470.843C-1063.56,458.232 -1062.51,445.689 -1062,433C-1062.92,432.706 -1063.85,432.412 -1064.8,432.108C-1074.59,428.715 -1085.69,421.681 -1090.75,412.438C-1094.19,404.917 -1095.92,396.925 -1096.31,388.688C-1096.68,383.971 -1098.45,381.506 -1101.43,377.938C-1104.62,373.994 -1106.7,369.884 -1107.5,364.875C-1107,362 -1107,362 -1104.94,359.188C-1102.25,354.769 -1102.98,351.901 -1104,347C-1104.13,346.292 -1104.26,345.585 -1104.39,344.855C-1106.05,336.869 -1110.48,331.587 -1117,327C-1119.31,325.801 -1121.55,324.9 -1124,324C-1122.25,321.76 -1121.16,321.042 -1118.38,320.313C-1103.37,318.923 -1093.73,323.994 -1082,333C-1079.09,335.496 -1076.34,338.167 -1073.56,340.813C-1070.35,343.557 -1067.02,345.201 -1063.2,346.949C-1054.88,350.919 -1048.99,359.519 -1044,367C-1042.57,362.232 -1041.47,357.526 -1040.56,352.625C-1038.66,342.951 -1036.45,336.057 -1030.52,328.066C-1026.44,322.533 -1027.27,314.623 -1028,308C-1031.03,296.797 -1039.21,288.637 -1048.56,282.25C-1051.07,280.965 -1053.22,280.397 -1056,280C-1055.67,279.34 -1055.34,278.68 -1055,278C-1042.75,274.529 -1027.26,276.826 -1016.02,282.508C-1007.71,287.92 -1002.56,294.827 -999.223,304.063C-996.734,310.042 -993.286,315.572 -990.051,321.173C-988.677,323.561 -987.335,325.966 -986,328.375C-985.443,329.377 -985.443,329.377 -984.875,330.398C-979.637,339.987 -983.784,353.842 -986,364C-985.582,363.518 -985.165,363.036 -984.734,362.539C-983,361 -983,361 -979.25,360.375C-974.506,359.313 -972.551,356.672 -969.738,352.875C-969.165,351.926 -968.591,350.978 -968,350C-967.568,349.301 -967.137,348.603 -966.692,347.883C-962.856,341.105 -962.37,335.563 -962.688,327.875C-962.71,326.823 -962.733,325.771 -962.756,324.688C-962.814,322.123 -962.896,319.563 -963,317C-958.686,319.309 -955.332,321.241 -952.188,325.063C-951.624,325.734 -951.061,326.406 -950.48,327.098C-943.625,335.907 -945.902,349.528 -946.242,360.275C-946.313,362.563 -946.367,364.851 -946.42,367.139C-947.183,395.539 -947.183,395.539 -955.426,405.77C-957.197,407.365 -959.019,408.672 -961,410C-961.975,410.673 -962.949,411.346 -963.953,412.039C-965.615,413.186 -967.278,414.332 -968.944,415.473C-982.229,424.2 -982.229,424.2 -991,437C-992.418,445.297 -988.104,450.699 -983.75,457.5C-982.388,459.675 -981.029,461.853 -979.672,464.031C-979.03,465.061 -978.389,466.09 -977.728,467.151C-974.32,472.77 -971.681,478.364 -969.813,484.688C-969.489,485.764 -969.165,486.84 -968.832,487.949C-966.566,496.258 -967,501.476 -967,511L-829,511C-828.34,509.35 -827.68,507.7 -827,506C-825.414,504.199 -825.414,504.199 -823.625,502.688C-823.04,502.176 -822.455,501.664 -821.852,501.137C-820,500 -820,500 -816,500C-816.144,499.412 -816.289,498.824 -816.438,498.219C-817.981,490.757 -818.222,483.478 -818.25,475.875C-818.264,474.356 -818.264,474.356 -818.277,472.807C-818.221,458.369 -814.561,446.43 -804.367,435.914C-801.078,432.657 -797.867,429.578 -794,427C-794.523,424.237 -795.109,421.674 -796,419C-797.214,404.038 -793.886,393.751 -784.477,381.777C-780.039,376.801 -774.827,371.172 -768,370C-768.023,369.033 -768.046,368.066 -768.07,367.07C-768.305,350.168 -765.105,337.84 -753.246,325.156C-746.833,319 -746.833,319 -744,319C-744.238,317.519 -744.238,317.519 -744.48,316.008C-746.519,301.592 -745.536,287.103 -736.695,274.996C-731.619,269.019 -726.128,265.182 -719,262C-719.742,258.544 -720.998,255.438 -722.375,252.188C-722.82,251.134 -723.264,250.081 -723.723,248.996C-724.144,248.007 -724.566,247.019 -725,246C-725.329,245.228 -725.657,244.456 -725.996,243.66C-726.661,242.105 -727.33,240.552 -728,239C-748.317,243.354 -765.206,255.194 -776.75,272.375C-780.911,279.139 -783.574,286.197 -785,294L-787,294C-788.405,292.395 -788.405,292.395 -790.004,290.168C-790.579,289.369 -791.155,288.571 -791.748,287.748C-792.347,286.903 -792.946,286.058 -793.563,285.188C-794.165,284.354 -794.768,283.521 -795.389,282.662C-799.864,276.409 -799.864,276.409 -801,273L-803,273C-803.178,273.539 -803.356,274.077 -803.54,274.633C-807.563,286.757 -811.783,298.821 -816.188,310.813C-816.635,312.036 -817.082,313.259 -817.543,314.52C-819.102,318.244 -820.93,321.539 -823,325C-826.769,323.789 -828.262,321.538 -830.051,318.102C-833.753,309.906 -834.907,301.983 -834,293C-833.464,291.726 -833.464,291.726 -832.918,290.426C-831.758,287.361 -831.947,286.095 -833,283C-834.349,280.72 -835.733,278.522 -837.188,276.313C-842.393,268.052 -845.386,259.363 -848,250C-848.199,249.295 -848.397,248.589 -848.602,247.863C-849.6,244.133 -850.089,240.845 -850,237C-850.684,237.01 -851.367,237.021 -852.072,237.032C-887.273,237.488 -922.189,235.363 -957.2,231.765C-959.292,231.55 -961.384,231.335 -963.477,231.121C-964.471,231.019 -965.465,230.917 -966.489,230.812C-974.982,229.961 -983.475,229.396 -992,229C-991.471,230.158 -991.471,230.158 -990.931,231.34C-988.558,236.535 -986.238,241.745 -984,247C-982.959,249.297 -981.918,251.594 -980.867,253.887C-980.036,255.912 -979.472,257.866 -979,260C-985.382,257.994 -991.071,255.064 -997,252C-998.149,251.423 -999.297,250.845 -1000.48,250.25C-1014.56,243.065 -1028.01,234.326 -1040,224C-1040.84,223.295 -1041.68,222.59 -1042.54,221.863C-1053.68,212.216 -1061.05,200.551 -1068.7,188.107C-1069.73,186.436 -1070.77,184.773 -1071.82,183.113C-1081.25,167.938 -1088.37,151.12 -1096,135C-1096.5,133.964 -1097,132.929 -1097.51,131.862C-1097.98,130.872 -1098.44,129.883 -1098.93,128.863C-1099.35,127.976 -1099.77,127.088 -1100.21,126.173C-1100.47,125.456 -1100.73,124.739 -1101,124C-1100.67,123.34 -1100.34,122.68 -1100,122C-1098.45,122.874 -1098.45,122.874 -1096.87,123.766C-1087.99,128.754 -1079.04,133.603 -1070,138.313C-1069.06,138.803 -1068.12,139.294 -1067.15,139.8C-1054.74,146.251 -1054.74,146.251 -1042,152C-1040.17,152.815 -1038.34,153.631 -1036.51,154.447C-1010.43,166.031 -983.653,175.513 -955,177C-957.35,179.686 -959.5,180.787 -962.813,182.063C-970.198,185.013 -977.395,188.349 -984.609,191.698C-985.534,192.123 -986.46,192.549 -987.414,192.988C-988.249,193.375 -989.084,193.763 -989.944,194.161C-992,195 -992,195 -994,195L-994,197C-978.253,197.047 -962.506,197.082 -946.759,197.104C-939.441,197.114 -932.124,197.128 -924.806,197.151C-872.189,197.315 -819.856,196.322 -767.563,190C-766.271,189.846 -764.979,189.692 -763.649,189.534C-756.857,188.67 -750.33,187.46 -743.713,185.705C-739.923,184.72 -736.103,183.998 -732.25,183.313C-731.541,183.183 -730.832,183.053 -730.102,182.92C-728.402,182.61 -726.701,182.304 -725,182C-729.929,172.602 -737.14,168.085 -747.195,164.84C-748.121,164.563 -749.046,164.286 -750,164C-750.843,163.713 -751.686,163.425 -752.555,163.129C-763.024,159.958 -774.148,160.25 -785,160C-784.988,160.82 -784.977,161.64 -784.965,162.484C-784.951,164.101 -784.951,164.101 -784.938,165.75C-784.926,166.817 -784.914,167.885 -784.902,168.984C-784.985,171.534 -785.254,173.579 -786,176C-791.728,173.956 -796.086,170.538 -801,167C-800.67,171.95 -800.34,176.9 -800,182C-804.84,179.58 -809.37,176.802 -814,174C-813.67,178.62 -813.34,183.24 -813,188C-822.625,182.25 -822.625,182.25 -826,180C-826.133,180.771 -826.266,181.542 -826.402,182.336C-826.579,183.339 -826.756,184.342 -826.938,185.375C-827.199,186.872 -827.199,186.872 -827.465,188.398C-828,191 -828,191 -829,193C-831.859,191.835 -833.011,190.985 -834.875,188.438C-838.645,185.497 -840.307,185.69 -845,185.563C-852.814,185.227 -852.814,185.227 -855.313,182.625C-856.946,179.117 -857.213,177.377 -857.375,173.625C-857.666,168.25 -858.997,165.598 -862.816,161.84C-877.606,149.378 -894.248,146.957 -913,148C-914.189,148.052 -915.378,148.105 -916.603,148.159C-926.053,148.617 -935.176,149.911 -944.5,151.563C-958.068,153.878 -971.22,154.645 -985,154C-985.33,153.01 -985.66,152.02 -986,151C-984.409,148.057 -982.126,145.574 -980,143C-979.477,142.318 -978.953,141.636 -978.414,140.934C-955.964,113.354 -920.679,103.156 -887,99C-885.98,98.871 -884.961,98.742 -883.91,98.609C-860.345,95.641 -836.769,93.507 -813,94C-813.02,92.98 -813.02,92.98 -813.04,91.94C-813.05,91.045 -813.06,90.149 -813.07,89.227C-813.09,87.897 -813.09,87.897 -813.11,86.542C-812.816,79.75 -808.516,73.831 -804,69C-778.758,48.322 -738.533,55.457 -708.363,57.855C-692.241,59.128 -676.168,59.724 -660,60C-658.793,60.027 -657.586,60.054 -656.342,60.083C-652.978,60.156 -649.615,60.208 -646.25,60.25C-645.273,60.272 -644.297,60.293 -643.291,60.315C-637.13,60.345 -633.689,59.609 -629.148,55.203C-628.271,54.236 -628.271,54.236 -627.375,53.25C-617.942,43.586 -606.098,38.162 -592.938,36C-591.08,35.669 -589.223,35.334 -587.367,34.996C-586.458,34.831 -585.549,34.666 -584.612,34.496C-573.422,32.373 -562.59,29.201 -552,25C-551.199,24.684 -550.397,24.368 -549.572,24.042C-538.984,19.818 -529.124,15.315 -519.715,8.848C-517.503,7.342 -515.397,6.158 -513,5C-513.06,6.006 -513.12,7.012 -513.181,8.049C-513.834,19.052 -514.454,30.057 -515.063,41.063C-515.154,42.719 -515.246,44.376 -515.338,46.033C-515.559,50.022 -515.779,54.011 -516,58C-509.73,58.33 -503.46,58.66 -497,59C-498.092,62.277 -498.555,62.678 -501.254,64.566C-501.936,65.047 -502.617,65.528 -503.32,66.023C-504.43,66.785 -504.43,66.785 -505.563,67.563C-506.323,68.091 -507.084,68.62 -507.868,69.165C-533.368,86.739 -533.368,86.739 -544.637,90.996C-549.396,93.018 -551.927,97.246 -553.813,101.875C-557.268,113.711 -555.858,129.091 -549.99,139.852C-545.122,147.754 -540.06,152.469 -531,155C-515.143,160.704 -501.449,170.713 -493.961,186.141C-492.284,190.248 -491.888,193.615 -492,198C-492.599,197.928 -493.199,197.856 -493.816,197.781C-501.101,197.035 -508.369,196.829 -515.688,196.75C-516.661,196.729 -517.634,196.707 -518.637,196.686C-524.85,196.656 -530.335,197.297 -536,200C-538.357,201.913 -538.357,201.913 -538.188,205.25C-536.441,210.767 -532.962,212.38 -528,215C-525.038,216.439 -522.055,217.772 -519,219L-519,221C-518.446,221.104 -517.891,221.209 -517.32,221.316C-506.776,224.423 -497.053,234.103 -491,243C-486.192,252.054 -486.581,261.066 -487,271C-491.912,269.551 -496.808,268.068 -501.684,266.5C-502.932,266.1 -502.932,266.1 -504.206,265.692C-505.879,265.155 -507.551,264.614 -509.222,264.07C-516.542,261.724 -523.331,260.782 -531,260.688C-532.172,260.644 -532.172,260.644 -533.367,260.6C-538.731,260.541 -541.753,261.424 -546,265C-548.337,268.931 -548.45,272.497 -548,277C-544.63,287.628 -537.47,296.513 -527.688,301.785C-524.149,303.573 -520.576,305.288 -517,307C-508.581,311.063 -504.026,316.537 -500.879,325.281C-500.589,326.178 -500.299,327.076 -500,328C-499.7,328.918 -499.399,329.836 -499.09,330.781C-496.728,338.956 -496.689,346.561 -497,355C-501.753,354.375 -505.49,352.425 -509.688,350.25C-510.402,349.888 -511.116,349.526 -511.851,349.153C-514.83,347.641 -517.795,346.109 -520.742,344.535C-530.176,339.564 -543.133,333.316 -554,336C-557.81,338.621 -559.642,342.691 -561,347C-561.308,349.983 -561.325,352.94 -561.313,355.938C-561.329,356.723 -561.345,357.509 -561.361,358.318C-561.365,363.203 -561.061,366.977 -558,371C-555.423,371.894 -553.338,372.401 -550.688,372.813C-538.183,375.359 -527.281,382.359 -520,393C-515.251,401.119 -510.257,410.344 -511,420C-512.459,419.691 -513.917,419.378 -515.375,419.063C-516.593,418.801 -516.593,418.801 -517.836,418.535C-520,418 -520,418 -522,417C-524.555,416.874 -527.07,416.81 -529.625,416.813C-530.711,416.813 -530.711,416.813 -531.819,416.813C-536.854,416.867 -541.197,417.399 -546,419C-546.99,419.33 -547.98,419.66 -549,420C-550.147,421.845 -550.147,421.845 -551,424C-551.536,425.196 -552.073,426.393 -552.625,427.625C-555.822,437.512 -555.498,449.907 -550.973,459.25C-550.652,459.828 -550.331,460.405 -550,461C-549.67,461.66 -549.34,462.32 -549,463C-540.674,463.168 -532.579,462.733 -524.313,461.75C-523.181,461.618 -522.049,461.486 -520.882,461.35C-512.954,460.371 -505.31,458.9 -497.586,456.895C-494.461,456.115 -491.435,455.567 -488.25,455.125C-460.327,450.676 -433.039,437.597 -416.148,414.305C-410.43,405.508 -405.911,396.986 -405.826,386.342C-405.82,385.681 -405.813,385.021 -405.806,384.34C-405.792,382.907 -405.78,381.474 -405.77,380.041C-405.754,377.76 -405.73,375.479 -405.705,373.199C-405.635,366.714 -405.575,360.229 -405.523,353.744C-405.491,349.771 -405.45,345.798 -405.403,341.825C-405.387,340.324 -405.375,338.823 -405.366,337.322C-405.31,327.712 -404.598,318.491 -403,309C-402.891,308.281 -402.782,307.562 -402.67,306.822C-399.251,284.474 -389.879,264.99 -374,249C-372.743,247.687 -372.743,247.687 -371.461,246.348C-365.677,240.39 -359.487,235.169 -353,230C-351.78,229.003 -350.561,228.004 -349.344,227.004C-340.419,219.678 -331.334,212.594 -322.132,205.621C-320.021,204.016 -317.918,202.402 -315.816,200.785C-306.11,193.318 -296.293,186.015 -286.416,178.775C-283.997,176.998 -281.584,175.213 -279.172,173.426C-270.962,167.345 -262.711,161.337 -254.345,155.47C-249.174,151.841 -244.05,148.15 -238.938,144.438C-231.308,138.904 -223.577,133.535 -215.791,128.226C-213.181,126.439 -210.592,124.624 -208,122.813C-198.689,116.357 -189.226,110.126 -179.791,103.855C-176.772,101.848 -173.755,99.838 -170.74,97.827C-169.544,97.03 -168.349,96.233 -167.153,95.437C-164.274,93.52 -161.399,91.597 -158.531,89.664C-147.486,82.235 -136.257,75.103 -125,68C-124.018,67.379 -123.035,66.758 -122.023,66.118C-107.829,57.155 -93.516,48.432 -79,40C-78.149,39.504 -77.298,39.009 -76.421,38.498C-53.274,25.043 -29.714,11.394 -5,1C-3,0 -3,0 0,0Z" style="fill:rgb(220,46,68);fill-rule:nonzero;"/>
    </g>
    <g transform="matrix(1,0,0,1,378,740)">
        <path d="M0,0L137,0C136.01,5.28 135.02,10.56 134,16C133.795,19.244 133.649,22.226 133.75,25.438C133.772,26.579 133.772,26.579 133.794,27.743C133.843,29.829 133.92,31.915 134,34C134.019,34.861 134.039,35.722 134.059,36.609C134.984,51.528 142.892,67.423 153.047,77.941C155,80 155,80 157,83C156.359,83.196 155.719,83.392 155.059,83.594C147.486,86.212 142.916,89.868 138.941,96.863C137.271,100.469 136.479,104.073 136,108C135.299,107.942 134.598,107.884 133.875,107.824C127.656,107.528 123.805,107.98 118.754,111.711C116.919,113.06 115.058,114.032 113,115C112.432,114.408 111.863,113.817 111.277,113.207C108.889,110.763 106.453,108.378 104,106C103.194,105.153 103.194,105.153 102.371,104.289C97.532,99.918 91.956,100.519 85.719,100.629C81.865,101.013 78.673,101.821 75,103C74.364,101.714 74.364,101.714 73.715,100.402C67.699,88.674 61.691,81.69 49,77C43.734,75.631 38.38,74.778 33,74C33.087,72.658 33.087,72.658 33.176,71.289C33.579,60.488 31.458,53.655 24.434,45.414C22.025,43.039 19.274,41.715 16.25,40.25C14.525,39.391 14.525,39.391 12.766,38.516C8.235,36.573 8.235,36.573 0,35L0,0Z" style="fill:rgb(63,153,1);fill-rule:nonzero;"/>
    </g>
    <g transform="matrix(1,0,0,1,572,330)">
        <path d="M0,0L11,0C11.021,0.99 11.041,1.98 11.063,3C11.777,8.163 15.241,11.614 19,15C22.864,17.341 26.571,17.678 31,17C35.253,15.363 38.735,13.027 41,9C41.705,6.853 41.705,6.853 42,5C45.469,5.458 48.674,5.891 52,7C51.642,14.154 47.818,18.407 42.754,23.066C34.68,29.149 26.675,29.355 17,28C10.49,25.894 6.412,20.739 3,15C0.429,9.916 -0.354,5.666 0,0Z" style="fill:rgb(251,247,247);fill-rule:nonzero;"/>
    </g>
    <g transform="matrix(1,0,0,1,584,330)">
        <path d="M0,0C10.48,-0.74 19.917,1.49 30,4C30.195,8.68 30.195,8.68 28.438,11.563C24.43,15.57 20.634,18.184 14.938,18.5C9.059,17.753 6.319,15.261 2.125,11.25C-0.627,7.04 -0.424,4.924 0,0Z" style="fill:rgb(8,7,7);fill-rule:nonzero;"/>
    </g>
    <g transform="matrix(1,0,0,1,654,1099)">
        <path d="M0,0C0.66,0.33 1.32,0.66 2,1C-4.93,7.93 -11.86,14.86 -19,22C-19,18.532 -18.635,18.234 -16.367,15.82C-15.808,15.221 -15.248,14.621 -14.672,14.004C-14.079,13.384 -13.486,12.764 -12.875,12.125C-12.02,11.207 -12.02,11.207 -11.148,10.27C-7.637,6.543 -3.999,3.197 0,0Z" style="fill:rgb(86,137,10);fill-rule:nonzero;"/>
    </g>
    <g transform="matrix(1,0,0,1,728,1020)">
        <path d="M0,0C1.607,3.215 1.057,6.436 1,10L0,10L0,3C-0.831,3.741 -0.831,3.741 -1.68,4.496C-2.766,5.457 -2.766,5.457 -3.875,6.438C-4.594,7.076 -5.314,7.714 -6.055,8.371C-8,10 -8,10 -10,11C-8.648,8.061 -7.101,5.708 -5,3.25C-4.484,2.636 -3.969,2.023 -3.438,1.391C-2,0 -2,0 0,0Z" style="fill:rgb(96,130,14);fill-rule:nonzero;"/>
    </g>
    <g transform="matrix(1,0,0,1,546,294)">
        <path d="M0,0C0.66,0.33 1.32,0.66 2,1C-1.63,4.63 -5.26,8.26 -9,12C-9,7.841 -6.753,5.855 -4,3C-1.688,1.125 -1.688,1.125 0,0Z" style="fill:rgb(223,75,94);fill-rule:nonzero;"/>
    </g>
    <g transform="matrix(1,0,0,1,1632,256)">
        <path d="M0,0C0.66,0.33 1.32,0.66 2,1C-1.96,4.465 -1.96,4.465 -6,8C-6.33,7.01 -6.66,6.02 -7,5C-7.66,4.67 -8.32,4.34 -9,4C-7.546,3.303 -6.087,2.618 -4.625,1.938C-3.407,1.363 -3.407,1.363 -2.164,0.777C-1.45,0.521 -0.736,0.264 0,0Z" style="fill:rgb(224,83,101);fill-rule:nonzero;"/>
    </g>
    <g transform="matrix(1,0,0,1,831,637)">
        <path d="M0,0C2.024,3.035 2.321,4.194 2.625,7.688C2.7,8.496 2.775,9.304 2.852,10.137C2.925,11.059 2.925,11.059 3,12C0.03,11.505 0.03,11.505 -3,11C-1.68,10.67 -0.36,10.34 1,10C0.67,6.7 0.34,3.4 0,0Z" style="fill:rgb(227,114,128);fill-rule:nonzero;"/>
    </g>
    <g transform="matrix(1,0,0,1,1530,1104)">
        <path d="M0,0C0.66,0.33 1.32,0.66 2,1C-0.97,3.97 -3.94,6.94 -7,10C-7,7 -7,7 -4.625,4.438C-3.759,3.633 -2.893,2.829 -2,2C-1.34,1.34 -0.68,0.68 0,0Z" style="fill:rgb(196,62,57);fill-rule:nonzero;"/>
    </g>
    <g transform="matrix(1,0,0,1,1682,1256)">
        <path d="M0,0C2.762,2.762 2.579,5.207 3,9C0.938,7.313 0.938,7.313 -1,5C-0.75,2.25 -0.75,2.25 0,0Z" style="fill:rgb(178,74,49);fill-rule:nonzero;"/>
    </g>
</svg>
